#N canvas 61 73 1221 668 16;
#X obj 161 18 r input;
#X obj 450 619 dac~;
#X obj 42 197 delay 500, f 10;
#X obj 177 510 *~;
#X msg 19 159 bang;
#X obj 463 44 ftom;
#X obj 501 110 mtof;
#X obj 64 236 delay 500;
#X obj 87 272 delay 500;
#X obj 497 80 +;
#X obj 521 10 r diff;
#X obj 983 172 r harm;
#X obj 684 52 s input;
#X obj 770 54 s diff;
#X obj 703 251 osc~;
#X obj 759 251 osc~;
#X obj 811 250 osc~;
#X obj 860 249 osc~;
#X obj 912 248 osc~;
#X obj 758 216 * 2;
#X obj 812 215 * 3;
#X obj 861 214 * 4;
#X obj 913 213 * 5;
#X floatatom 700 176 5 0 0 0 - - -, f 5;
#X obj 759 342 *~;
#X obj 812 340 *~;
#X obj 865 340 *~;
#X obj 916 339 *~;
#X obj 840 54 s harm;
#X floatatom 837 21 5 0 0 0 - - -, f 5;
#X msg 687 18 440, f 5;
#X obj 760 379 *~ 0.5;
#X obj 703 473 *~;
#X obj 794 412 *~ 0.33;
#X obj 839 380 *~ 0.25;
#X obj 879 413 *~ 0.2;
#X obj 988 381 sel 0 1 2 3 4;
#X msg 986 419 1;
#X msg 998 455 0.66;
#X msg 1031 419 0.54;
#X msg 1057 456 0.48;
#X msg 1093 418 0.43;
#X obj 1035 218 sel 0 1 2 3 4;
#X msg 1009 258 1;
#X msg 1009 289 0;
#X msg 1059 258 1;
#X msg 1059 289 0;
#X msg 1107 298 1;
#X msg 1107 329 0;
#X msg 1148 354 1;
#X msg 1148 385 0;
#X floatatom 763 17 5 0 0 0 - - -, f 5;
#X obj 57 412 line~;
#X msg 17 353 0 20;
#X msg 81 352 1 20;
#X obj 485 172 r harm;
#X obj 205 251 osc~;
#X obj 261 251 osc~;
#X obj 313 250 osc~;
#X obj 362 249 osc~;
#X obj 414 248 osc~;
#X obj 260 216 * 2;
#X obj 314 215 * 3;
#X obj 363 214 * 4;
#X obj 415 213 * 5;
#X floatatom 202 176 5 0 0 0 - - -, f 5;
#X obj 261 342 *~;
#X obj 314 340 *~;
#X obj 367 340 *~;
#X obj 418 339 *~;
#X obj 262 379 *~ 0.5;
#X obj 205 473 *~;
#X obj 296 412 *~ 0.33;
#X obj 341 380 *~ 0.25;
#X obj 381 413 *~ 0.2;
#X obj 490 381 sel 0 1 2 3 4;
#X msg 488 419 1;
#X msg 500 455 0.66;
#X msg 533 419 0.54;
#X msg 559 456 0.48;
#X msg 595 418 0.43;
#X obj 537 218 sel 0 1 2 3 4;
#X msg 511 258 1;
#X msg 511 289 0;
#X msg 561 258 1;
#X msg 561 289 0;
#X msg 609 298 1;
#X msg 609 329 0;
#X msg 658 295 1;
#X msg 658 326 0;
#X obj 60 550 line~;
#X msg 20 491 0 20;
#X msg 84 490 1 20;
#X obj 662 512 *~;
#X obj 825 516 loadbang;
#X obj 476 563 *~;
#X msg 825 547 0.3;
#X obj 953 520 r volume;
#X obj 953 561 dbtorms;
#X obj 916 52 s volume;
#X floatatom 883 589 5 0 0 0 - - -, f 5;
#X msg 917 22 80;
#X obj 521 43 / 100;
#X connect 0 0 5 0;
#X connect 0 0 4 0;
#X connect 0 0 65 0;
#X connect 2 0 53 0;
#X connect 2 0 7 0;
#X connect 3 0 95 0;
#X connect 4 0 2 0;
#X connect 4 0 54 0;
#X connect 5 0 9 0;
#X connect 6 0 23 0;
#X connect 7 0 8 0;
#X connect 7 0 92 0;
#X connect 8 0 91 0;
#X connect 9 0 6 0;
#X connect 10 0 102 0;
#X connect 11 0 36 0;
#X connect 11 0 42 0;
#X connect 14 0 32 0;
#X connect 15 0 24 0;
#X connect 16 0 25 0;
#X connect 17 0 26 0;
#X connect 18 0 27 0;
#X connect 19 0 15 0;
#X connect 20 0 16 0;
#X connect 21 0 17 0;
#X connect 22 0 18 0;
#X connect 23 0 19 0;
#X connect 23 0 20 0;
#X connect 23 0 21 0;
#X connect 23 0 22 0;
#X connect 23 0 14 0;
#X connect 24 0 31 0;
#X connect 25 0 33 0;
#X connect 26 0 34 0;
#X connect 27 0 35 0;
#X connect 29 0 28 0;
#X connect 30 0 12 0;
#X connect 31 0 32 0;
#X connect 32 0 93 1;
#X connect 33 0 32 0;
#X connect 34 0 32 0;
#X connect 35 0 32 0;
#X connect 36 0 37 0;
#X connect 36 1 38 0;
#X connect 36 2 39 0;
#X connect 36 3 40 0;
#X connect 36 4 41 0;
#X connect 37 0 32 1;
#X connect 38 0 32 1;
#X connect 39 0 32 1;
#X connect 40 0 32 1;
#X connect 41 0 32 1;
#X connect 42 0 44 0;
#X connect 42 0 46 0;
#X connect 42 0 48 0;
#X connect 42 0 50 0;
#X connect 42 1 43 0;
#X connect 42 1 46 0;
#X connect 42 1 48 0;
#X connect 42 1 50 0;
#X connect 42 2 43 0;
#X connect 42 2 45 0;
#X connect 42 2 48 0;
#X connect 42 2 50 0;
#X connect 42 3 43 0;
#X connect 42 3 45 0;
#X connect 42 3 47 0;
#X connect 42 3 50 0;
#X connect 42 4 43 0;
#X connect 42 4 45 0;
#X connect 42 4 47 0;
#X connect 42 4 49 0;
#X connect 43 0 24 1;
#X connect 44 0 24 1;
#X connect 45 0 25 1;
#X connect 46 0 25 1;
#X connect 47 0 26 1;
#X connect 48 0 26 1;
#X connect 49 0 27 1;
#X connect 50 0 27 1;
#X connect 51 0 13 0;
#X connect 52 0 3 0;
#X connect 53 0 52 0;
#X connect 54 0 52 0;
#X connect 55 0 75 0;
#X connect 55 0 81 0;
#X connect 56 0 71 0;
#X connect 57 0 66 0;
#X connect 58 0 67 0;
#X connect 59 0 68 0;
#X connect 60 0 69 0;
#X connect 61 0 57 0;
#X connect 62 0 58 0;
#X connect 63 0 59 0;
#X connect 64 0 60 0;
#X connect 65 0 61 0;
#X connect 65 0 62 0;
#X connect 65 0 63 0;
#X connect 65 0 64 0;
#X connect 65 0 56 0;
#X connect 66 0 70 0;
#X connect 67 0 72 0;
#X connect 68 0 73 0;
#X connect 69 0 74 0;
#X connect 70 0 71 0;
#X connect 71 0 3 1;
#X connect 72 0 71 0;
#X connect 73 0 71 0;
#X connect 74 0 71 0;
#X connect 75 0 76 0;
#X connect 75 1 77 0;
#X connect 75 2 78 0;
#X connect 75 3 79 0;
#X connect 75 4 80 0;
#X connect 76 0 71 1;
#X connect 77 0 71 1;
#X connect 78 0 71 1;
#X connect 79 0 71 1;
#X connect 80 0 71 1;
#X connect 81 0 83 0;
#X connect 81 0 85 0;
#X connect 81 0 87 0;
#X connect 81 0 89 0;
#X connect 81 1 82 0;
#X connect 81 1 85 0;
#X connect 81 1 87 0;
#X connect 81 1 89 0;
#X connect 81 2 82 0;
#X connect 81 2 84 0;
#X connect 81 2 87 0;
#X connect 81 2 89 0;
#X connect 81 3 82 0;
#X connect 81 3 84 0;
#X connect 81 3 86 0;
#X connect 81 3 89 0;
#X connect 81 4 82 0;
#X connect 81 4 84 0;
#X connect 81 4 86 0;
#X connect 81 4 88 0;
#X connect 82 0 66 1;
#X connect 83 0 66 1;
#X connect 84 0 67 1;
#X connect 85 0 67 1;
#X connect 86 0 68 1;
#X connect 87 0 68 1;
#X connect 88 0 69 1;
#X connect 89 0 69 1;
#X connect 90 0 93 0;
#X connect 91 0 90 0;
#X connect 92 0 90 0;
#X connect 93 0 95 0;
#X connect 94 0 96 0;
#X connect 95 0 1 1;
#X connect 95 0 1 0;
#X connect 96 0 100 0;
#X connect 97 0 98 0;
#X connect 98 0 100 0;
#X connect 100 0 95 1;
#X connect 101 0 99 0;
#X connect 102 0 9 1;
